<?xml version="1.0" ?><svg viewBox="0 0 60 60" xmlns="http://www.w3.org/2000/svg"><title/><g id="colour"><path d="M10,17l31.81139-.11456c2-2,2-8-3-8,0-2-3-6-7-4,0-5-10-5-10-1-4-2-6,.78906-6,3-3-1-6,1-5,4-3,1-4,4-1,6" fill="#e0e0e0"/><path d="M12.81244,6.86664l-.03186.01044.03082.00836Z" fill="#e0e0e0"/><path d="M38.89473,8.88544c1.10527,2.11456,2,6,0,8h3C43.89473,14.88544,43,9,38.89473,8.88544Z" fill="#c9c8c7"/><path d="M13,12c-.28756-2.26871,1.38066-2.62775,3.756-2.33953A.98373.98373,0,0,0,17.86358,8.956c.42519-1.75636,2.04926-3.41757,4.87221-2.49265a1.01856,1.01856,0,0,0,1.23755-.54879c1.018-2.06278,5.28584-2.50912,7.83416-1.09119C31.72278-.11279,21.8114-.09747,21.8114,3.88544c-4-2-6,.78906-6,3-3-1-6,1-5,4-3,1-4,4-1,6l.132.08014c.0921-.83228,6.26708,1.85427,2.10622-2.79324C11,13,13.05338,12.42117,13,12Z" fill="#f4f4f4"/><path d="M31.87067,4.86084c-.0213-.01227-.04163-.02545-.06317-.03748.00037.02118.00391.04071.00391.06207C31.83148,4.87543,31.85065,4.87061,31.87067,4.86084Z" fill="#f4f4f4"/><path d="M36.66667,59H15.33333A5.17474,5.17474,0,0,1,10,54V17H42V54A5.17474,5.17474,0,0,1,36.66667,59Z" fill="#ff9f00"/><path d="M14,18V54c0,3.3137,2.38782,6,5.33331,6h-4C12.38779,60,10,57.3137,10,54V18Z" fill="#ffb15c"/><path d="M38,17V53c0,3.3137-2.38782,6-5.33331,6h4C39.61218,59,42,56.3137,42,53V17Z" fill="#e28703"/><path d="M42,28h6.75A2.13608,2.13608,0,0,1,51,30V51a2.13608,2.13608,0,0,1-2.25,2H42V49h3.75A1.14616,1.14616,0,0,0,47,48V33a1.14616,1.14616,0,0,0-1.25-1H42Z" fill="#616161"/><rect fill="#e28703" height="25" rx="2" ry="2" width="4" x="15" y="29"/><rect fill="#e28703" height="25" rx="2" ry="2" width="4" x="24" y="29"/><rect fill="#e28703" height="25" rx="2" ry="2" width="4" x="33" y="29"/><path d="M18,14a.99974.99974,0,0,1-1-1c0-2.20605,2.24316-4,5-4a1,1,0,0,1,0,2c-1.626,0-3,.916-3,2A.99974.99974,0,0,1,18,14Z" fill="#c9c8c7"/><path d="M34,14a.99974.99974,0,0,1-1-1,1.001,1.001,0,0,0-1-1,1,1,0,0,1,0-2,3.00328,3.00328,0,0,1,3,3A.99974.99974,0,0,1,34,14Z" fill="#c9c8c7"/><path d="M28,8a1.00069,1.00069,0,0,1-.97656-.78418A2.11529,2.11529,0,0,0,26,7a1,1,0,0,1,0-2c1.73828,0,3,.84082,3,2A.99974.99974,0,0,1,28,8Z" fill="#c9c8c7"/></g><g data-name="Layer 1" id="Layer_1"><path d="M48.75,27.00036H43V17.34948a6.73675,6.73675,0,0,0,.7876-6.32764A4.70763,4.70763,0,0,0,39.87207,8.056a6.71818,6.71818,0,0,0-2.86475-3.77246A5.31858,5.31858,0,0,0,32.78516,3.639a4.54888,4.54888,0,0,0-1.97705-2.41895A8.05922,8.05922,0,0,0,26.58252.11461c-2.58057,0-4.5498.98535-5.27734,2.51465a4.73668,4.73668,0,0,0-4.14014.31348,4.70175,4.70175,0,0,0-2.0127,2.84473,5.034,5.034,0,0,0-4.20508,1.30469,3.87054,3.87054,0,0,0-1.10791,3.30859,4.50361,4.50361,0,0,0-2.61914,3.31055A4.14822,4.14822,0,0,0,9,17.5006V54.00036a6.18047,6.18047,0,0,0,6.3335,6h21.333a6.18047,6.18047,0,0,0,6.3335-6h5.75a3.13605,3.13605,0,0,0,3.25-3v-21A3.13605,3.13605,0,0,0,48.75,27.00036Zm-7.75-4H11v-5H41Zm2,10h2.75c.15234.001.24854.05859.25.002L46.023,47.91442a.396.396,0,0,1-.27295.08594H43ZM11.31641,11.9486a.99927.99927,0,0,0,.63232-1.26465,2.00268,2.00268,0,0,1,.4126-2.17676,3.30657,3.30657,0,0,1,3.32227-.55859A.99944.99944,0,0,0,17,7.00036a2.83993,2.83993,0,0,1,1.21631-2.35645,3.41546,3.41546,0,0,1,3.33643.251A1.0001,1.0001,0,0,0,23,4.00036c0-1.22461,1.8457-1.88574,3.58252-1.88574a6.13875,6.13875,0,0,1,3.165.80078A2.38173,2.38173,0,0,1,31,5.00036a1.0001,1.0001,0,0,0,1.44727.89453,3.41157,3.41157,0,0,1,3.5083.08984A4.35891,4.35891,0,0,1,38,9.00036a.99974.99974,0,0,0,1,1,2.88207,2.88207,0,0,1,2.93994,1.78711,4.82116,4.82116,0,0,1-.41351,4.21289H10.34454a2.28079,2.28079,0,0,1-1.1424-2.02441A2.83265,2.83265,0,0,1,11.31641,11.9486ZM36.6665,58.00036H15.3335a4.18113,4.18113,0,0,1-4.3335-4v-29H41v29A4.18113,4.18113,0,0,1,36.6665,58.00036Zm13.3335-7a1.14711,1.14711,0,0,1-1.25,1H43v-2h2.75a2.13865,2.13865,0,0,0,2.25-2v-15a2.13865,2.13865,0,0,0-2.25-2H43v-2h5.75a1.14711,1.14711,0,0,1,1.25,1Z"/><path d="M17,28.00036a3.00328,3.00328,0,0,0-3,3v21a3,3,0,0,0,6,0v-21A3.00328,3.00328,0,0,0,17,28.00036Zm1,24a1,1,0,0,1-2,0v-21a1,1,0,0,1,2,0Z"/><path d="M26,28.00036a3.00328,3.00328,0,0,0-3,3v21a3,3,0,0,0,6,0v-21A3.00328,3.00328,0,0,0,26,28.00036Zm1,24a1,1,0,0,1-2,0v-21a1,1,0,0,1,2,0Z"/><path d="M35,28.00036a3.00328,3.00328,0,0,0-3,3v21a3,3,0,1,0,6,0v-21A3.00328,3.00328,0,0,0,35,28.00036Zm1,24a1,1,0,1,1-2,0v-21a1,1,0,0,1,2,0Z"/><path d="M18,14.00036a.99974.99974,0,0,0,1-1c0-1.084,1.374-2,3-2a1,1,0,0,0,0-2c-2.75684,0-5,1.79395-5,4A.99974.99974,0,0,0,18,14.00036Z"/><path d="M32,12.00036a1.001,1.001,0,0,1,1,1,1,1,0,0,0,2,0,3.00328,3.00328,0,0,0-3-3,1,1,0,0,0,0,2Z"/><path d="M26,7.00036a2.11529,2.11529,0,0,1,1.02344.21582A1.00007,1.00007,0,0,0,29,7.00036c0-1.15918-1.26172-2-3-2a1,1,0,0,0,0,2Z"/></g></svg>