<?xml version="1.0" ?><!DOCTYPE svg  PUBLIC '-//W3C//DTD SVG 1.1//EN'  'http://www.w3.org/Graphics/SVG/1.1/DTD/svg11.dtd'><svg enable-background="new 0 0 512 512" id="Layer_1" version="1.1" viewBox="0 0 512 512" xml:space="preserve" xmlns="http://www.w3.org/2000/svg" xmlns:xlink="http://www.w3.org/1999/xlink"><circle cx="256" cy="256" fill="#003382" id="ellipse" r="256"/><g id="logo"><path d="M274.5,246.8c4.5,2.7,9,5.1,13.1,7.9c14.4,10.2,22.6,24.4,25.6,41.5c3.2,17.9,1.1,35.4-7.7,51.6   c-8.1,14.9-20.5,25.2-35.9,32.1c-13.2,5.9-27.1,9.1-41.4,9.2c-33.3,0.4-66.6,0.3-99.9,0.4c-0.6,0-1.3-0.1-2.2-0.2c0-1,0-1.8,0-2.7   c0-79.7,0-159.4,0-239.2c0-14.8,12.8-27.7,27.6-27.7c23.2-0.1,46.5-0.3,69.7,0.1c19.5,0.3,38.1,4.7,54.2,16.5   c16.2,11.9,24.7,28.1,26.1,48.1c1.2,16.5-2.2,31.9-12.1,45.4c-3.3,4.5-7.6,8.3-11.6,12.4C278.3,243.8,276.4,245.2,274.5,246.8z    M178.5,343.2c0.6,0.1,1,0.2,1.3,0.2c16.4,0,32.7,0.4,49.1-0.2c11.8-0.5,21.7-5.8,27.2-16.8c6.3-12.7,6.5-25.9,0-38.6   c-6.2-12.1-17.3-16.8-30.3-17.2c-10.7-0.3-21.4-0.1-32.1,0c-7.5,0.1-13.1,4.9-14.5,12.2c-0.4,2.3-0.6,4.7-0.6,7   c0,16.9,0,33.8,0,50.8C178.5,341.4,178.5,342.3,178.5,343.2z M178.6,228.6c13.1,0,25.8,0,38.5,0c1.8,0,3.6,0.1,5.4-0.1   c9.5-0.8,17.3-4.5,22.6-12.7c4.8-7.5,6-15.8,5.4-24.5c-1.2-15-11.1-25.7-26.1-26.8c-9.9-0.8-19.9-0.6-29.9-0.4   c-6.6,0.2-12.3,2.8-14.5,9.7c-1,3-1.3,6.3-1.3,9.5c-0.1,14.2-0.1,28.4,0,42.5C178.5,226.8,178.6,227.6,178.6,228.6z" fill="#FFFFFF"/><path d="M341.1,359.9c0-17.7,14.4-32,32.2-32.1c18.3,0,32.8,14.4,32.8,32.5c0,17.1-14.8,32-31.9,32.1   C355.6,392.4,341.1,378.1,341.1,359.9z" fill="#FFFFFF"/></g></svg>