<?xml version="1.0" ?><svg id="Layer_1" style="enable-background:new 0 0 64 64;" version="1.1" viewBox="0 0 64 64" xml:space="preserve" xmlns="http://www.w3.org/2000/svg" xmlns:xlink="http://www.w3.org/1999/xlink"><style type="text/css">
	.st0{fill:none;stroke:#1A1A1A;stroke-width:2;stroke-linecap:round;stroke-linejoin:round;stroke-miterlimit:10;}
	.st1{fill:#1A1A1A;}
	.st2{fill:none;stroke:#000000;stroke-width:2;stroke-linecap:round;stroke-linejoin:round;stroke-miterlimit:10;}
	.st3{fill:none;stroke:#1A1A1A;stroke-width:2;stroke-linecap:round;stroke-linejoin:round;}
	.st4{fill:none;stroke:#1A1A1A;stroke-width:2;stroke-linecap:round;stroke-linejoin:round;stroke-dasharray:5.8,5.8;}
</style><g id="XMLID_20_"><path class="st0" d="M16.8,46.6H15h-2.3c-1.4,0-2.8,0.6-3.6,1.7L7,51h13.6l-0.5-1.9C19.8,47.6,18.4,46.6,16.8,46.6z"/><path class="st0" d="M21.5,20l6.1,1.2c0.9,5.5-0.4,10.4-4.6,14.5c-1.5,1.5-2.7,3.3-3.2,5.4c-0.1,0.6-0.2,1.2-0.3,1.9l-3.3-0.7   l-2.2-0.4l4.8-22.4L21.5,20z"/><path class="st0" d="M21.5,20l1-4.3c0.3-1.1,0.8-2.1,1.7-2.9c1.2-1.2,2.8-1.8,4.4-1.8c1.6,0,3.2,0.6,4.4,1.8c0,0,5.8,5.6,4.7,13.2   C36.5,33.6,40,39,40,39l1.9,1.8"/><line class="st0" x1="15" x2="16.1" y1="46.6" y2="42.3"/><path class="st0" d="M53.6,51H37.3c-1.6,0-2.7-1.5-2.1-2.9c0.3-0.9,0.7-1.8,1.2-2.5c1.3-2.1,3-3.7,5.5-4.7c1.6-0.7,3.6-1.1,5.9-1.1   c1.2,0,2.4,0,3.8,0.1c1.2,0.1,2.1,1.1,2.1,2.2v2.4"/><ellipse class="st0" cx="53.6" cy="47.7" rx="3.4" ry="3.3"/><path class="st0" d="M36.3,45.6h9.3c0,0,1.7-0.8,2.1-5.8"/></g></svg>