<?xml version="1.0" ?><svg data-name="Lovely Valentine's day" height="64" id="Lovely_Valentine_s_day" viewBox="0 0 64 64" width="64" xmlns="http://www.w3.org/2000/svg"><defs><style>.cls-1{fill:#e29e9a;}.cls-2{fill:#f6e3a6;}.cls-3{fill:#623905;}.cls-4{fill:#268484;}.cls-5{fill:#d26274;}</style></defs><title/><circle class="cls-1" cx="32" cy="32" r="28"/><path class="cls-2" d="M48.923,13V39h-4.1V35H19.179v4h-4.1V13A1.013,1.013,0,0,1,16.1,12h2.051a1.013,1.013,0,0,1,1.025,1v.74a51.558,51.558,0,0,1,25.642.11V13a1.013,1.013,0,0,1,1.025-1H47.9A1.013,1.013,0,0,1,48.923,13Z"/><path class="cls-3" d="M48.923,40h-4.1a1,1,0,0,1-1-1V36H20.18v3a1,1,0,0,1-1,1h-4.1a1,1,0,0,1-1-1V13A2.015,2.015,0,0,1,16.1,11h2.051a2.023,2.023,0,0,1,1.956,1.481,52.722,52.722,0,0,1,23.752.115A2.023,2.023,0,0,1,45.846,11H47.9a2.015,2.015,0,0,1,2.026,2V39A1,1,0,0,1,48.923,40Zm-3.1-2h2.1V13.01L45.846,13l-.026.85a1,1,0,0,1-1.239.97,50.8,50.8,0,0,0-25.15-.112,1,1,0,0,1-1.251-.968V13H16.1l-.025,25h2.1V35a1,1,0,0,1,1-1H44.82a1,1,0,0,1,1,1Z"/><path class="cls-4" d="M25.333,17.6a2.293,2.293,0,0,0,.652,1.618l1.572,1.617L29.172,22.5a1.089,1.089,0,0,0,1.573,0l1.615-1.668L33.846,19.3a2.427,2.427,0,0,0,.329-3.029,2.185,2.185,0,0,0-3.386-.294l-.83.854-.734-.755A2.223,2.223,0,0,0,25.333,17.6Z"/><path class="cls-3" d="M29.959,23.836a2.08,2.08,0,0,1-1.5-.64l-3.185-3.284a3.255,3.255,0,1,1,4.673-4.529l.016.016.114-.117a3.174,3.174,0,0,1,2.545-.962A3.218,3.218,0,0,1,34.995,15.7a3.443,3.443,0,0,1-.432,4.3l-3.1,3.2a2.079,2.079,0,0,1-1.5.641Zm-.054-2.031h.121l3.1-3.2a1.432,1.432,0,0,0,.225-1.759,1.2,1.2,0,0,0-.9-.533,1.168,1.168,0,0,0-.949.363l-.83.854a1,1,0,0,1-.717.3h0a1,1,0,0,1-.717-.3l-.734-.755A1.255,1.255,0,1,0,26.7,18.512l3.195,3.293Z"/><path class="cls-5" d="M31.487,19.926A1.778,1.778,0,0,0,32,21.184l1.222,1.258,1.256,1.3a.848.848,0,0,0,1.224,0l1.256-1.3,1.155-1.189a1.887,1.887,0,0,0,.256-2.356,1.7,1.7,0,0,0-2.633-.229l-.646.664-.571-.587a1.729,1.729,0,0,0-3.027,1.181Z"/><path class="cls-3" d="M35.085,25a1.839,1.839,0,0,1-1.33-.565l-2.478-2.554a2.752,2.752,0,0,1,3.8-3.978,2.694,2.694,0,0,1,2.089-.747,2.724,2.724,0,0,1,2.014,1.169,2.866,2.866,0,0,1-.358,3.624l-2.412,2.486A1.84,1.84,0,0,1,35.086,25Zm-1.9-5.835a.613.613,0,0,0-.328.09.8.8,0,0,0-.148,1.225l2.38,2.453,2.307-2.377a.89.89,0,0,0,.152-1.086.721.721,0,0,0-.535-.321.705.705,0,0,0-.562.216l-.645.664a1,1,0,0,1-.717.3h0a1,1,0,0,1-.717-.3l-.57-.587A.88.88,0,0,0,33.181,19.165Z"/><rect class="cls-2" height="7" width="33.846" x="15.077" y="38"/><path class="cls-3" d="M48.923,46H15.077a1,1,0,0,1-1-1V38a1,1,0,0,1,1-1H48.923a1,1,0,0,1,1,1v7A1,1,0,0,1,48.923,46ZM16.077,44H47.923V39H16.077Z"/><path class="cls-2" d="M15.077,45H21a0,0,0,0,1,0,0v4.912A1.088,1.088,0,0,1,19.912,51H16.165a1.088,1.088,0,0,1-1.088-1.088V45A0,0,0,0,1,15.077,45Z"/><path class="cls-3" d="M19.911,52H16.165a2.092,2.092,0,0,1-2.088-2.089V45a1,1,0,0,1,1-1H21a1,1,0,0,1,1,1v4.911A2.092,2.092,0,0,1,19.911,52Zm-3.834-6v3.911a.088.088,0,0,0,.088.089h3.746A.089.089,0,0,0,20,49.911V46Z"/><path class="cls-2" d="M43,45h5.923a0,0,0,0,1,0,0v4.912A1.088,1.088,0,0,1,47.835,51H44.088A1.088,1.088,0,0,1,43,49.912V45A0,0,0,0,1,43,45Z"/><path class="cls-3" d="M47.835,52H44.089A2.092,2.092,0,0,1,42,49.911V45a1,1,0,0,1,1-1h5.923a1,1,0,0,1,1,1v4.911A2.092,2.092,0,0,1,47.835,52ZM44,46v3.911a.089.089,0,0,0,.089.089h3.746a.088.088,0,0,0,.088-.089V46Z"/><path class="cls-5" d="M17.164,30H46.836A5.164,5.164,0,0,1,52,35.164V40a1,1,0,0,1-1,1H13a1,1,0,0,1-1-1V35.164A5.164,5.164,0,0,1,17.164,30Z"/><path class="cls-3" d="M51,42H13a2,2,0,0,1-2-2V35.164A6.172,6.172,0,0,1,17.164,29H46.836A6.172,6.172,0,0,1,53,35.164V40A2,2,0,0,1,51,42ZM17.164,31A4.169,4.169,0,0,0,13,35.164V40H51l0-4.836A4.169,4.169,0,0,0,46.836,31Z"/><path class="cls-1" d="M31.819,19.5H33.5a1,1,0,0,1,1,1v30a1,1,0,0,1-1,1H31.819A2.319,2.319,0,0,1,29.5,49.181V21.819A2.319,2.319,0,0,1,31.819,19.5Z" transform="translate(67.5 3.5) rotate(90)"/><rect class="cls-5" height="4" rx="1.789" width="11" x="18" y="26"/><path class="cls-3" d="M27.211,31H19.789A2.792,2.792,0,0,1,17,28.211v-.422A2.792,2.792,0,0,1,19.789,25h7.422A2.792,2.792,0,0,1,30,27.789v.422A2.792,2.792,0,0,1,27.211,31Zm-7.422-4a.79.79,0,0,0-.789.789v.422a.79.79,0,0,0,.789.789h7.422A.79.79,0,0,0,28,28.211v-.422A.79.79,0,0,0,27.211,27Z"/><rect class="cls-5" height="4" rx="1.789" width="11" x="35" y="26"/><path class="cls-3" d="M44.211,31H36.789A2.792,2.792,0,0,1,34,28.211v-.422A2.792,2.792,0,0,1,36.789,25h7.422A2.792,2.792,0,0,1,47,27.789v.422A2.792,2.792,0,0,1,44.211,31Zm-7.422-4a.79.79,0,0,0-.789.789v.422a.79.79,0,0,0,.789.789h7.422A.79.79,0,0,0,45,28.211v-.422A.79.79,0,0,0,44.211,27Z"/></svg>