<?xml version="1.0" ?><svg baseProfile="tiny" id="Layer_1" version="1.2" viewBox="0 0 512 512" xml:space="preserve" xmlns="http://www.w3.org/2000/svg" xmlns:xlink="http://www.w3.org/1999/xlink"><g id="XMLID_261_"><g id="XMLID_291_"><path d="M267.3,423.9h-22.8c-19.3,0-35-15.7-35-35v-50.7c0-19.3,15.7-35,35-35h22.8    c19.3,0,35,15.7,35,35v50.7C302.3,408.2,286.7,423.9,267.3,423.9z" fill="#EDBB98" id="XMLID_292_"/></g><g id="XMLID_289_"><path d="M302.3,388v0.8c0,19.3-15.7,35-35,35h-22.8c-19.3,0-35-15.7-35-35V388    c-72.9,15.8-129.7,64.3-144.9,123.6c-0.2,0.8,96.6,0,191.3,0c94.7,0,191.5,0.8,191.3,0C432,452.3,375.2,403.8,302.3,388z" fill="#E6E6E6" id="XMLID_290_"/></g><g id="XMLID_287_"><ellipse cx="371.8" cy="245.8" fill="#F4C5A2" id="XMLID_288_" rx="25.7" ry="35.5" transform="matrix(0.9772 0.2124 -0.2124 0.9772 60.6924 -73.3732)"/></g><g id="XMLID_285_"><ellipse cx="144.5" cy="248.1" fill="#F4C5A2" id="XMLID_286_" rx="25.7" ry="35.5" transform="matrix(-0.9772 0.2124 -0.2124 -0.9772 338.4767 459.7993)"/></g><g id="XMLID_283_"><ellipse cx="258.5" cy="243.6" fill="#F4C5A2" id="XMLID_284_" rx="110.3" ry="128.7"/></g><g id="XMLID_281_"><path d="M276.8,220.5c2.5-4.5,6.5-7.9,11-10.4c4.5-2.5,9.7-3.9,15-4.1c2.7-0.2,5.3,0.3,8,0.8    c2.6,0.8,5.1,1.5,7.4,2.9c2.4,1.2,4.4,2.9,6.2,4.6c1,0.8,1.7,1.9,2.5,2.9c0.7,1,1.5,2.1,2.1,3.2c-2.6-0.5-4.7-1.5-7-2    c-2.3-0.5-4.3-1.3-6.5-1.6c-2.1-0.5-4.2-0.6-6.2-1c-2.1,0-4.1-0.3-6.2-0.1c-4.1,0.1-8.3,0.6-12.6,1.5    C286.2,218.1,281.7,219.2,276.8,220.5z" fill="#333333" id="XMLID_282_"/></g><g id="XMLID_276_"><g id="XMLID_279_"><circle cx="302.9" cy="250.6" fill="#333333" id="XMLID_280_" r="13.3"/></g><g id="XMLID_277_"><circle cx="305.1" cy="240.9" fill="#F2F2F2" id="XMLID_278_" r="3.3"/></g></g><g id="XMLID_274_"><path d="M182.9,220.5c2.5-4.5,6.5-7.9,11-10.4c4.5-2.5,9.7-3.9,15-4.1c2.7-0.2,5.3,0.3,8,0.8    c2.6,0.8,5.1,1.5,7.4,2.9c2.4,1.2,4.4,2.9,6.2,4.6c1,0.8,1.7,1.9,2.5,2.9c0.7,1,1.5,2.1,2.1,3.2c-2.6-0.5-4.7-1.5-7-2    c-2.3-0.5-4.3-1.3-6.5-1.6c-2.1-0.5-4.2-0.6-6.2-1c-2.1,0-4.1-0.3-6.2-0.1c-4.1,0.1-8.3,0.6-12.6,1.5    C192.3,218.1,187.9,219.2,182.9,220.5z" fill="#333333" id="XMLID_275_"/></g><g id="XMLID_269_"><g id="XMLID_272_"><circle cx="209" cy="250.6" fill="#333333" id="XMLID_273_" r="13.3"/></g><g id="XMLID_270_"><circle cx="211.2" cy="240.9" fill="#F2F2F2" id="XMLID_271_" r="3.3"/></g></g><g id="XMLID_267_"><path d="M237.9,281.9c3.6,0.9,6.7,1.8,9.8,2.4c3.1,0.6,6,0.9,8.9,0.9c2.9,0,5.8-0.2,8.8-0.9    c1.6-0.2,3-0.8,4.7-1.1c1.6-0.4,3.2-1,5.1-1.4c-0.9,1.6-2,3.1-3.2,4.4c-1.4,1.2-2.7,2.5-4.4,3.4c-3.2,2-7.2,2.9-11,2.8    c-3.9,0-7.7-1.1-10.9-2.9C242.4,287.7,239.6,285.2,237.9,281.9z" fill="#F4A56E" id="XMLID_268_"/></g><path d="M301,301.2c-2.7,3.5-5.2,7-8.3,10.3c-1.5,1.6-3.2,3.2-5.2,4.5c-1.9,1.3-3.9,2.2-5.9,3   c-4.1,1.7-8.3,2.5-12.4,3.3c-4.2,0.7-8.4,0.9-12.5,1.2l-0.1,0l-0.2,0c-4.1-0.2-8.3-0.5-12.5-1.2c-4.2-0.7-8.4-1.6-12.4-3.3   c-2-0.8-4.1-1.8-5.9-3c-1.9-1.3-3.6-2.8-5.2-4.5c-3-3.3-5.6-6.9-8.3-10.3c3.6,2.3,6.9,5.2,10.2,7.6c1.7,1.2,3.4,2.3,5.1,3   c1.8,0.8,3.6,1.4,5.5,1.9c3.8,0.9,7.7,1.6,11.7,1.9c4,0.4,8,0.6,12.1,0.8h-0.3c4.1-0.1,8.1-0.4,12.1-0.7c4-0.3,7.9-1,11.7-1.9   c1.9-0.5,3.7-1.1,5.5-1.9c1.7-0.7,3.4-1.8,5.1-3C294.2,306.5,297.4,303.5,301,301.2z" fill="#F4A56E" id="XMLID_266_"/><path d="M129.5,216.9c0,0,1.3-70.3,15.1-91.9c0,0,27.9-39.4,77.7-60.8c6.4-2.7,41.3-26.5,51.9-48.1   c0,0,1.6,16.2-10.2,29.2c13.1-10.3,25.6-26.8,31.4-45.4c0,0,43.8,40.6,46.3,67.3c0,0,52.4,46.4,37.6,143.8l-17.9,26.5   c0,0-13.9-62.9-32.5-85.3c0,0-84.7-25.2-141.4,6.3c0,0-33,29.8-31.7,67.9C155.8,226.6,148.9,213.5,129.5,216.9z" fill="#3F2820" id="XMLID_265_"/><path d="M218.4,412l-8.8-24v0.8C209.6,397.8,212.9,405.9,218.4,412z" fill="none" id="XMLID_264_"/><path d="M209.6,388.9V388c-72.9,15.8-129.7,64.3-144.9,123.6c-0.2,0.8,95.9,0,190.4,0L218.4,412   C212.9,405.9,209.6,397.8,209.6,388.9z" fill="#49C6F2" id="XMLID_263_"/><path d="M302.4,388.9V388c72.9,15.8,129.7,64.3,144.9,123.6c0.2,0.8-95.9,0-190.4,0l36.6-99.6   C299.1,405.9,302.4,397.8,302.4,388.9z" fill="#49C6F2" id="XMLID_262_"/></g></svg>