<?xml version="1.0" ?><!DOCTYPE svg  PUBLIC '-//W3C//DTD SVG 1.1//EN'  'http://www.w3.org/Graphics/SVG/1.1/DTD/svg11.dtd'><svg height="100%" style="fill-rule:evenodd;clip-rule:evenodd;stroke-linejoin:round;stroke-miterlimit:1.41421;" version="1.1" viewBox="0 0 101 126" width="100%" xml:space="preserve" xmlns="http://www.w3.org/2000/svg" xmlns:serif="http://www.serif.com/" xmlns:xlink="http://www.w3.org/1999/xlink"><g><path d="M60.094,47.416c0.8,-1.5 1.3,-3.3 1.3,-5.1c0,-6.1 -4.9,-11 -11,-11c-6.1,0 -11,4.9 -11,11c0,1.8 0.5,3.6 1.3,5.1c-13.6,3.7 -23.9,14.9 -25.3,28.4l-5.7,0l0,8l81.4,0l0,-8l-5.7,0c-1.4,-13.5 -11.7,-24.7 -25.3,-28.4Zm-9.7,-8.1c1.7,0 3,1.3 3,3c0,1.7 -1.3,3 -3,3c-1.7,0 -3,-1.3 -3,-3c0,-1.7 1.3,-3 3,-3Zm0,14.8c13.8,0 25.2,9.5 26.9,21.8l-53.8,0c1.7,-12.3 13.1,-21.8 26.9,-21.8Z" style="fill-rule:nonzero;"/><path d="M77.294,75.916c-1.757,-12.347 -13.134,-21.8 -26.9,-21.8c-13.8,0 -25.2,9.5 -26.9,21.8l53.8,0Z" style="fill:#ffe71f;"/><path d="M24.171,72.712l-0.677,3.204l53.8,0l-0.9,-6.9l-52.223,3.696Z" style="fill:#020000;fill-opacity:0.204608;"/><path d="M50.394,39.316c1.7,0 3,1.3 3,3c0,1.7 -1.3,3 -3,3c-1.7,0 -3,-1.3 -3,-3c0,-1.7 1.3,-3 3,-3Z" style="fill:#ffe71f;"/><rect height="8" width="81.4" x="9.694" y="86.716"/><path d="M46.982,43.923l-0.088,1.393l7,0l-0.117,-3l-6.795,1.607Z" style="fill:#020000;fill-opacity:0.204608;"/></g></svg>