<?xml version="1.0" ?><svg id="Layer_1" style="enable-background:new 0 0 64 64;" version="1.1" viewBox="0 0 64 64" xml:space="preserve" xmlns="http://www.w3.org/2000/svg" xmlns:xlink="http://www.w3.org/1999/xlink"><style type="text/css">
	.st0{fill:#62BEE7;}
	.st1{fill:#474E5E;}
	.st2{fill:#F3EEE4;}
	.st3{fill:#FFFFFF;}
	.st4{fill:#E8DCCA;}
	.st5{opacity:0.1;fill:#231F20;}
	.st6{fill:#506268;}
	.st7{fill:#EB5151;}
	.st8{fill:#C64444;}
	.st9{fill:#9CCB5B;}
	.st10{fill:#404A4C;}
	.st11{fill:#676767;}
	.st12{fill:#E0E1E5;}
	.st13{fill:#9D9EA0;}
	.st14{fill:#B3B4B7;}
	.st15{opacity:0.1;}
	.st16{fill:#231F20;}
	.st17{fill:#FACC20;}
	.st18{fill:#FDEF34;}
	.st19{fill:#F7A90B;}
	.st20{fill:#20B8EA;}
	.st21{fill:#00A8EA;}
	.st22{fill:#33D3F4;}
	.st23{opacity:0.25;fill:#FFFFFF;}
	.st24{fill:#CACBCE;}
	.st25{fill:#2E3545;}
	.st26{fill:#8DAF4A;}
	.st27{fill:#F9C2AF;}
	.st28{fill:#AFDDF4;}
	.st29{fill:#677177;}
	.st30{fill:#FFEDB3;}
	.st31{fill:#695652;}
	.st32{fill:#30A7BF;}
	.st33{fill:#4D5556;}
	.st34{opacity:0.35;}
	.st35{fill:#FFCB04;}
	.st36{fill:#99E9FA;}
	.st37{opacity:0.2;}
	.st38{opacity:3.000000e-02;}
	.st39{fill:#9ECA5B;}
	.st40{fill:#98BA56;}
	.st41{fill:#40EEFF;}
	.st42{fill:#FF6A52;}
	.st43{opacity:0.1;fill:#FFFFFF;}
	.st44{opacity:0.4;}
	.st45{fill:#57606D;}
	.st46{fill:#BACA5B;}
	.st47{opacity:0.25;}
	.st48{opacity:5.000000e-02;fill:#231F20;}
	.st49{opacity:0.2;fill:#FFFFFF;}
	.st50{opacity:0.3;}
	.st51{fill:#FFD82F;}
	.st52{fill:#F4C121;}
	.st53{fill:#EF9D0A;}
	.st54{fill:#F9E532;}
	.st55{fill:#F4C01E;}
	.st56{fill:#FFE14D;}
	.st57{fill:#B7C156;}
	.st58{fill:#DBA92C;}
	.st59{fill:#363D4D;}
	.st60{fill:#3F4656;}
	.st61{fill:#463E33;}
	.st62{fill:none;}
	.st63{opacity:4.000000e-02;}
	.st64{fill:#4DB6AC;}
	.st65{fill:#CADE49;}
	.st66{fill:#9FD343;}
	.st67{fill:#AAD643;}
	.st68{fill:#82C736;}
	.st69{opacity:0.3;fill:#FFFFFF;}
	.st70{fill:#FFD640;}
	.st71{opacity:0.5;}
	.st72{opacity:0.6;}
</style><g><circle class="st1" cx="32" cy="32" r="32"/><g><g><g><path class="st8" d="M25,37.3v14.7h-3.7c-4.7,0-9.2-0.9-13.4-2.5V33.1c3.8,2.7,8.4,4.2,13.4,4.2H25z"/></g></g><g><path class="st7" d="M21.9,37.3v14.7h-0.6c-1.4,0-2.7-0.1-4.1-0.2V37c1.3,0.2,2.7,0.4,4.1,0.4H21.9z"/></g><g><path class="st3" d="M56,44.2c0,0.7-0.2,1.3-0.7,1.7c-4.7,5-11.2,7.7-17.7,7.7c-4.3,0-8.7-1.2-12.6-3.6V38.9h11.8     c0.8,0,1.4,0.3,1.9,0.8c0.5,0.5,0.9,1.3,0.8,2.2c-0.1,1.5-1.4,2.5-2.9,2.5h-5.3l0.3,0.4c7,6.8,15.2,1.8,20.1-2.5     C53.5,40.9,56,42,56,44.2z"/></g><g class="st15"><path class="st16" d="M26.2,38.9H25V50c0.4,0.2,0.8,0.4,1.1,0.7V38.9z"/></g><g><circle class="st17" cx="43.6" cy="30.1" r="8.7"/></g><g><circle class="st18" cx="43.6" cy="30.1" r="6.9"/></g><g><g><path class="st8" d="M46.5,30.9c-0.1-0.3-0.5-1.2-2.5-1.6v-2.5c0.5,0.2,0.8,0.5,0.9,1c0.1,0.4,0.4,0.6,0.8,0.6      c0.2,0,1.4-0.4,0.2-1.9c-0.2-0.3-0.6-0.7-1.9-0.8v-1h-0.8v1c-2.3,0.2-2.5,1.7-2.5,2.4c0,2,2,2.4,2.5,2.5v2.7      c-1-0.2-1.2-1.2-1.3-1.5c-0.2-0.4-0.5-0.5-0.7-0.5c-0.6,0-0.8,0.6-0.8,0.7c0,0.3,0.1,1.4,1.5,2.2c0.3,0.2,0.7,0.3,1.2,0.3l0,0.9      H44v-0.9c0.6,0,1-0.2,1.5-0.4C46.6,33.4,47,32.1,46.5,30.9z M43.3,29.1c-0.6-0.3-1-0.4-1.1-1.1c0-0.3,0.1-0.9,1.1-1.1V29.1z       M44,33.4v-2.6c1.2,0.4,1.2,0.9,1.2,1.3C45.3,32.4,45.2,33.1,44,33.4z"/></g></g><g><g><path class="st3" d="M43.9,19.8c-0.4,0-0.6-0.3-0.6-0.6v-4.5c0-0.4,0.3-0.6,0.6-0.6c0.4,0,0.6,0.3,0.6,0.6v4.5      C44.6,19.5,44.3,19.8,43.9,19.8z"/></g><g><g><path class="st3" d="M39.7,18.1c-0.4,0-0.6-0.3-0.6-0.6v-4.5c0-0.4,0.3-0.6,0.6-0.6s0.6,0.3,0.6,0.6v4.5       C40.4,17.8,40.1,18.1,39.7,18.1z"/></g><g><path class="st3" d="M39.7,11c-0.4,0-0.6-0.3-0.6-0.6V9c0-0.4,0.3-0.6,0.6-0.6s0.6,0.3,0.6,0.6v1.3C40.4,10.7,40.1,11,39.7,11z       "/></g></g><g><g><path class="st3" d="M48.1,8.4c0.4,0,0.6,0.3,0.6,0.6v4.5c0,0.4-0.3,0.6-0.6,0.6c-0.4,0-0.6-0.3-0.6-0.6V9       C47.5,8.7,47.8,8.4,48.1,8.4z"/></g><g><path class="st3" d="M48.1,15.5c0.4,0,0.6,0.3,0.6,0.6v1.3c0,0.4-0.3,0.6-0.6,0.6c-0.4,0-0.6-0.3-0.6-0.6v-1.3       C47.5,15.8,47.8,15.5,48.1,15.5z"/></g></g></g></g></g></svg>