<?xml version="1.0" ?><!DOCTYPE svg  PUBLIC '-//W3C//DTD SVG 1.1//EN'  'http://www.w3.org/Graphics/SVG/1.1/DTD/svg11.dtd'><svg enable-background="new 0 0 512 512" height="512px" id="Layer_1" version="1.1" viewBox="0 0 512 512" width="512px" xml:space="preserve" xmlns="http://www.w3.org/2000/svg" xmlns:xlink="http://www.w3.org/1999/xlink"><g><g><rect fill="#F16259" height="185.652" width="235.488" x="138.256" y="205.963"/><path d="M373.744,401.615H138.256c-5.522,0-10-4.477-10-10V205.963c0-5.523,4.478-10,10-10h235.488    c5.522,0,10,4.477,10,10v185.652C383.744,397.138,379.267,401.615,373.744,401.615z M148.256,381.615h215.488V215.963H148.256    V381.615z" fill="#444B54"/></g><g><rect fill="#55939C" height="92.826" width="235.488" x="138.256" y="205.963"/><path d="M373.744,308.789H138.256c-5.522,0-10-4.477-10-10v-92.826c0-5.523,4.478-10,10-10h235.488    c5.522,0,10,4.477,10,10v92.826C383.744,304.312,379.267,308.789,373.744,308.789z M148.256,288.789h215.488v-72.826H148.256    V288.789z" fill="#444B54"/></g><g><path d="M256,262.376h-0.333c-5.522,0-10-4.477-10-10s4.478-10,10-10H256c5.522,0,10,4.477,10,10    S261.522,262.376,256,262.376z" fill="#444B54"/></g><g><path d="M256.167,357.963h-0.333c-5.522,0-10-4.477-10-10s4.478-10,10-10h0.333c5.522,0,10,4.477,10,10    S261.689,357.963,256.167,357.963z" fill="#444B54"/></g><g><path d="M373.744,401.615H138.256c-5.522,0-10-4.477-10-10V205.963c0-5.523,4.478-10,10-10h235.488    c5.522,0,10,4.477,10,10v185.652C383.744,397.138,379.267,401.615,373.744,401.615z M148.256,381.615h215.488V215.963H148.256    V381.615z" fill="#444B54"/></g><g><path d="M373.744,308.789H138.256c-5.522,0-10-4.477-10-10v-92.826c0-5.523,4.478-10,10-10h235.488    c5.522,0,10,4.477,10,10v92.826C383.744,304.312,379.267,308.789,373.744,308.789z M148.256,288.789h215.488v-72.826H148.256    V288.789z" fill="#444B54"/></g><g><path d="M138.256,448.963c-5.522,0-10-4.477-10-10v-47.348c0-5.523,4.478-10,10-10s10,4.477,10,10v47.348    C148.256,444.486,143.778,448.963,138.256,448.963z" fill="#444B54"/></g><g><path d="M373.744,448.963c-5.522,0-10-4.477-10-10v-47.348c0-5.523,4.478-10,10-10s10,4.477,10,10v47.348    C383.744,444.486,379.267,448.963,373.744,448.963z" fill="#444B54"/></g><g><path d="M265.826,149.963c-0.005,0-0.013,0-0.02,0h-99.234c-3.166,0-6.145-1.499-8.03-4.041    c-1.887-2.542-2.458-5.828-1.54-8.857l20.269-66.926c1.276-4.217,5.164-7.102,9.57-7.102h57.431c4.343,0,8.189,2.803,9.52,6.937    l21.335,66.304c0.452,1.14,0.7,2.383,0.7,3.685C275.826,145.486,271.35,149.963,265.826,149.963z M180.05,129.963h72.034    l-15.1-46.926h-42.724L180.05,129.963z" fill="#444B54"/></g><g><path d="M216.189,215.963c-5.522,0-10-4.477-10-10v-66c0-5.523,4.478-10,10-10s10,4.477,10,10v66    C226.189,211.486,221.712,215.963,216.189,215.963z" fill="#444B54"/></g><g><path d="M185.189,169.146c-5.522,0-10-4.477-10-10v-19.184c0-5.523,4.478-10,10-10s10,4.477,10,10v19.184    C195.189,164.669,190.712,169.146,185.189,169.146z" fill="#444B54"/></g><g><path d="M256,262.376h-0.333c-5.522,0-10-4.477-10-10s4.478-10,10-10H256c5.522,0,10,4.477,10,10    S261.522,262.376,256,262.376z" fill="#444B54"/></g><g><path d="M256.167,357.963h-0.333c-5.522,0-10-4.477-10-10s4.478-10,10-10h0.333c5.522,0,10,4.477,10,10    S261.689,357.963,256.167,357.963z" fill="#444B54"/></g><g><path d="M138.256,448.963c-5.522,0-10-4.477-10-10v-47.348c0-5.523,4.478-10,10-10s10,4.477,10,10v47.348    C148.256,444.486,143.778,448.963,138.256,448.963z" fill="#444B54"/></g><g><path d="M373.744,448.963c-5.522,0-10-4.477-10-10v-47.348c0-5.523,4.478-10,10-10s10,4.477,10,10v47.348    C383.744,444.486,379.267,448.963,373.744,448.963z" fill="#444B54"/></g><g><polygon fill="#F16259" points="265.807,139.963 166.572,139.963 186.841,73.037 244.271,73.037   "/><path d="M265.826,149.963c-0.005,0-0.013,0-0.02,0h-99.234c-3.166,0-6.145-1.499-8.03-4.041    c-1.887-2.542-2.458-5.828-1.54-8.857l20.269-66.926c1.276-4.217,5.164-7.102,9.57-7.102h57.431c4.343,0,8.189,2.803,9.52,6.937    l21.335,66.304c0.452,1.14,0.7,2.383,0.7,3.685C275.826,145.486,271.35,149.963,265.826,149.963z M180.05,129.963h72.034    l-15.1-46.926h-42.724L180.05,129.963z" fill="#444B54"/></g><g><path d="M216.189,215.963c-5.522,0-10-4.477-10-10v-66c0-5.523,4.478-10,10-10s10,4.477,10,10v66    C226.189,211.486,221.712,215.963,216.189,215.963z" fill="#444B54"/></g><g><path d="M185.189,169.146c-5.522,0-10-4.477-10-10v-19.184c0-5.523,4.478-10,10-10s10,4.477,10,10v19.184    C195.189,164.669,190.712,169.146,185.189,169.146z" fill="#444B54"/></g></g></svg>