<?xml version="1.0" ?><svg id="Layer_1" style="enable-background:new 0 0 128 128;" version="1.1" viewBox="0 0 128 128" xml:space="preserve" xmlns="http://www.w3.org/2000/svg" xmlns:xlink="http://www.w3.org/1999/xlink"><style type="text/css">
	.st0{fill-rule:evenodd;clip-rule:evenodd;}
	.st1{fill-rule:evenodd;clip-rule:evenodd;fill:#7ACED7;}
</style><path class="st0" d="M66,33.3v79.9l58-15.5v-80L66,33.3L66,33.3z M0,15.1L0,15.1L0,15.1L0,15.1L0,15l0,0l0,0l0,0l0,0  l0,0l0,0l0,0l0,0l0,0l0,0l0,0l0,0l0,0l0,0l0,0l0,0l0,0l0,0l0,0l0,0l0,0l0,0l0,0l0,0l0,0l0,0l0,0l0,0l0,0l0,0l0,0l0.1-0.1l0,0  c0-0.1,0.1-0.1,0.1-0.2l0,0l0,0l0,0c0-0.1,0.1-0.1,0.2-0.2l0,0l0,0l0,0l0,0l0,0l0,0l0,0l0,0l0,0l0,0l0,0l0,0l0,0l0,0l0,0l0,0l0,0  l0,0l0,0l0,0l0,0l0,0l0,0l0,0l0,0l0,0l0.1,0l0,0l0.1,0l0,0c0.1,0,0.2-0.1,0.3-0.1l0,0l0,0l0,0l0,0l0,0l0,0l0,0l0,0l0,0l0,0l0,0l0,0  l0,0l0,0l0,0l0,0h0l0,0h0h0l0.1,0h0l0,0l0.1,0l0,0l0,0l0,0l0,0l0.1,0l0,0L64,29.7l61.5-16.5l0,0l0.1,0l0,0l0,0l0,0l0,0l0.1,0l0,0h0  l0.1,0h0h0l0,0h0l0,0l0,0l0,0l0,0l0,0l0,0l0,0l0,0l0,0l0,0l0,0l0,0l0,0l0,0l0,0l0,0c0.1,0,0.2,0,0.2,0.1l0,0l0,0l0.1,0l0,0l0.1,0  l0,0l0,0l0,0l0,0l0,0l0,0l0,0l0,0l0,0l0,0l0,0l0,0l0,0l0,0l0,0l0,0l0,0l0,0l0,0l0,0l0,0l0,0l0,0l0,0c0.1,0.1,0.1,0.1,0.2,0.2l0,0  l0,0l0,0c0.1,0.1,0.1,0.2,0.2,0.3l0,0l0,0l0,0l0,0l0,0l0,0l0,0l0,0l0,0l0,0l0,0l0,0l0,0l0,0l0,0l0,0l0,0l0,0l0,0l0,0l0,0l0,0l0,0  l0,0l0,0l0,0l0,0l0,0l0,0l0,0l0,0l0,0l0,0v0l0,0v82.8c0,0.2,0,0.5-0.1,0.7l0.1,0.2c0.3,1.1-0.4,2.2-1.4,2.4l-61.9,16.6  c-0.2,0-0.3,0.1-0.5,0.1c-0.2,0-0.5,0-0.7-0.1L1.5,101.2c-1.1-0.3-1.7-1.4-1.4-2.4l0.1-0.2C0,98.4,0,98.1,0,97.9V15.1L0,15.1z   M4,97.7l58,15.5v-80L4,17.7V97.7L4,97.7z M77.5,41.4l33.8-9.1c1.1-0.3,2.2,0.4,2.4,1.4c0.3,1.1-0.4,2.2-1.4,2.4l-33.8,9.1  c-1.1,0.3-2.2-0.4-2.4-1.4C75.8,42.7,76.5,41.6,77.5,41.4L77.5,41.4z M77.5,69.3l33.8-9.1c1.1-0.3,2.2,0.4,2.4,1.4  c0.3,1.1-0.4,2.2-1.4,2.4l-33.8,9.1c-1.1,0.3-2.2-0.4-2.4-1.4C75.8,70.7,76.5,69.6,77.5,69.3L77.5,69.3z M77.5,55.3l33.8-9.1  c1.1-0.3,2.2,0.4,2.4,1.4c0.3,1.1-0.4,2.2-1.4,2.4l-33.8,9.1c-1.1,0.3-2.2-0.4-2.4-1.4C75.8,56.7,76.5,55.6,77.5,55.3z" id="XMLID_22_"/><path class="st1" d="M4,97.7v-80l58,15.6v80L4,97.7L4,97.7z M77.5,41.4l33.8-9.1c1.1-0.3,2.2,0.4,2.4,1.4  c0.3,1.1-0.4,2.2-1.4,2.4l-33.8,9.1c-1.1,0.3-2.2-0.4-2.4-1.4C75.8,42.7,76.5,41.6,77.5,41.4L77.5,41.4z M77.5,69.3l33.8-9.1  c1.1-0.3,2.2,0.4,2.4,1.4c0.3,1.1-0.4,2.2-1.4,2.4l-33.8,9.1c-1.1,0.3-2.2-0.4-2.4-1.4C75.8,70.7,76.5,69.6,77.5,69.3L77.5,69.3z   M77.5,55.3l33.8-9.1c1.1-0.3,2.2,0.4,2.4,1.4c0.3,1.1-0.4,2.2-1.4,2.4l-33.8,9.1c-1.1,0.3-2.2-0.4-2.4-1.4  C75.8,56.7,76.5,55.6,77.5,55.3L77.5,55.3z M66,33.3v79.9l58-15.5v-80L66,33.3z" id="XMLID_16_"/></svg>