<svg height="512pt" viewBox="0 0 512 512" width="512pt" xmlns="http://www.w3.org/2000/svg"><path d="m504.394531 256c0 137.1875-111.210937 248.398438-248.398437 248.398438-137.183594 0-248.394532-111.210938-248.394532-248.398438 0-137.183594 111.210938-248.394531 248.394532-248.394531 137.1875 0 248.398437 111.210937 248.398437 248.394531zm0 0" fill="#d4243e"/><path d="m255.996094 488.175781c-62.015625 0-120.320313-24.152343-164.171875-68.003906-43.851563-43.851563-68-102.152344-68-164.171875 0-62.015625 24.148437-120.320312 68-164.171875 43.851562-43.851563 102.15625-68 164.171875-68s120.320312 24.148437 164.171875 68c43.851562 43.855469 68.003906 102.15625 68.003906 164.171875s-24.152344 120.320312-68.003906 164.171875c-43.851563 43.851563-102.15625 68.003906-164.171875 68.003906zm0 0" fill="#ff5a73"/><path d="m422.03125 198.527344h-332.070312c-10.640626 0-19.265626 8.625-19.265626 19.265625v76.414062c0 10.640625 8.625 19.269531 19.265626 19.269531h332.070312c10.640625 0 19.269531-8.628906 19.269531-19.269531v-76.414062c0-10.640625-8.628906-19.265625-19.269531-19.265625zm0 0" fill="#e6e6e6"/><path d="m437.019531 74.980469c-48.351562-48.351563-112.640625-74.980469-181.019531-74.980469s-132.667969 26.628906-181.019531 74.980469c-48.351563 48.351562-74.980469 112.640625-74.980469 181.019531 0 36.863281 7.667969 72.441406 22.796875 105.746094 14.613281 32.171875 35.371094 60.539062 61.703125 84.308594 3.117188 2.816406 7.925781 2.570312 10.738281-.546876 2.816407-3.117187 2.570313-7.925781-.546875-10.742187-24.777344-22.363281-44.304687-49.046875-58.050781-79.308594-14.222656-31.316406-21.433594-64.777343-21.433594-99.457031 0-64.316406 25.046875-124.785156 70.527344-170.265625s105.949219-70.527344 170.265625-70.527344 124.785156 25.046875 170.265625 70.527344 70.527344 105.949219 70.527344 170.265625-25.046875 124.785156-70.527344 170.265625-105.949219 70.527344-170.265625 70.527344c-50.089844 0-98.101562-15.226563-138.835938-44.035157-3.429687-2.425781-8.175781-1.613281-10.601562 1.816407-2.421875 3.429687-1.609375 8.175781 1.820312 10.597656 43.316407 30.636719 94.363282 46.828125 147.617188 46.828125 68.378906 0 132.667969-26.628906 181.019531-74.980469 48.351563-48.351562 74.980469-112.640625 74.980469-181.019531s-26.628906-132.667969-74.980469-181.019531zm0 0"/><path d="m89.960938 206.132812h220.496093c4.199219 0 7.601563-3.40625 7.601563-7.605468 0-4.199219-3.402344-7.605469-7.601563-7.605469h-220.496093c-14.816407 0-26.871094 12.054687-26.871094 26.871094v76.414062c0 14.816407 12.054687 26.871094 26.871094 26.871094h332.070312c14.816406 0 26.871094-12.054687 26.871094-26.871094v-76.414062c0-14.816407-12.054688-26.871094-26.871094-26.871094h-81.15625c-4.199219 0-7.605469 3.40625-7.605469 7.605469 0 4.199218 3.40625 7.605468 7.605469 7.605468h81.15625c6.433594 0 11.664062 5.230469 11.664062 11.660157v76.414062c0 6.429688-5.230468 11.664063-11.664062 11.664063h-332.070312c-6.429688 0-11.664063-5.234375-11.664063-11.664063v-76.414062c0-6.429688 5.234375-11.660157 11.664063-11.660157zm0 0"/></svg>