<?xml version="1.0" ?><!DOCTYPE svg  PUBLIC '-//W3C//DTD SVG 1.1//EN'  'http://www.w3.org/Graphics/SVG/1.1/DTD/svg11.dtd'><svg enable-background="new 0 0 512 512" height="512px" id="Layer_1" version="1.1" viewBox="0 0 512 512" width="512px" xml:space="preserve" xmlns="http://www.w3.org/2000/svg" xmlns:xlink="http://www.w3.org/1999/xlink"><g><g><path d="M392.075,422.027h-272.15c-5.523,0-10-4.478-10-10v-173.27c0-5.522,4.477-10,10-10h272.15    c5.523,0,10,4.478,10,10v173.27C402.075,417.55,397.598,422.027,392.075,422.027z M129.925,402.027h252.15v-153.27h-252.15    V402.027z" fill="#444B54"/></g><g><g><line fill="#F16259" x1="256.971" x2="256.971" y1="238.275" y2="155.906"/><path d="M256.971,248.275c-5.523,0-10-4.478-10-10v-82.369c0-5.522,4.477-10,10-10s10,4.478,10,10v82.369     C266.971,243.798,262.494,248.275,256.971,248.275z" fill="#444B54"/></g><g><polygon fill="#F16259" points="312.76,155.906 201.18,155.906 212.245,50.818 301.696,50.818    "/><path d="M312.78,165.906c-0.007,0-0.013,0-0.02,0H201.18c-2.834,0-5.536-1.203-7.432-3.31     s-2.81-4.919-2.513-7.737L202.3,49.771c0.536-5.09,4.827-8.953,9.945-8.953h89.451c5.118,0,9.409,3.863,9.945,8.953     l10.996,104.438c0.094,0.551,0.144,1.118,0.144,1.696C322.78,161.429,318.303,165.906,312.78,165.906z M212.289,145.906h89.363     l-8.958-85.088h-71.446L212.289,145.906z" fill="#444B54"/></g></g><g><path d="M284.632,199.248c-5.523,0-10-4.478-10-10v-33.342c0-5.522,4.477-10,10-10s10,4.478,10,10v33.342    C294.632,194.771,290.155,199.248,284.632,199.248z" fill="#444B54"/></g><g><path d="M119.925,471.182c-5.523,0-10-4.478-10-10v-49.154c0-5.522,4.477-10,10-10s10,4.478,10,10v49.154    C129.925,466.704,125.448,471.182,119.925,471.182z" fill="#444B54"/></g><g><path d="M392.075,471.182c-5.523,0-10-4.478-10-10v-49.154c0-5.522,4.477-10,10-10s10,4.478,10,10v49.154    C402.075,466.704,397.598,471.182,392.075,471.182z" fill="#444B54"/></g><g><path d="M284.632,335.393h-64.281c-5.523,0-10-4.478-10-10s4.477-10,10-10h64.281c5.523,0,10,4.478,10,10    S290.155,335.393,284.632,335.393z" fill="#444B54"/></g><g><rect fill="#55939C" height="173.27" width="272.15" x="119.925" y="238.758"/><path d="M392.075,422.027h-272.15c-5.523,0-10-4.478-10-10v-173.27c0-5.522,4.477-10,10-10h272.15    c5.523,0,10,4.478,10,10v173.27C402.075,417.55,397.598,422.027,392.075,422.027z M129.925,402.027h252.15v-153.27h-252.15    V402.027z" fill="#444B54"/></g><g><g><line fill="#F16259" x1="256.971" x2="256.971" y1="238.275" y2="155.906"/><path d="M256.971,248.275c-5.523,0-10-4.478-10-10v-82.369c0-5.522,4.477-10,10-10s10,4.478,10,10v82.369     C266.971,243.798,262.494,248.275,256.971,248.275z" fill="#444B54"/></g><g><polygon fill="#F16259" points="312.76,155.906 201.18,155.906 212.245,50.818 301.696,50.818    "/><path d="M312.78,165.906c-0.007,0-0.013,0-0.02,0H201.18c-2.834,0-5.536-1.203-7.432-3.31     s-2.81-4.919-2.513-7.737L202.3,49.771c0.536-5.09,4.827-8.953,9.945-8.953h89.451c5.118,0,9.409,3.863,9.945,8.953     l10.996,104.438c0.094,0.551,0.144,1.118,0.144,1.696C322.78,161.429,318.303,165.906,312.78,165.906z M212.289,145.906h89.363     l-8.958-85.088h-71.446L212.289,145.906z" fill="#444B54"/></g></g><g><path d="M284.632,199.248c-5.523,0-10-4.478-10-10v-33.342c0-5.522,4.477-10,10-10s10,4.478,10,10v33.342    C294.632,194.771,290.155,199.248,284.632,199.248z" fill="#444B54"/></g><g><path d="M119.925,471.182c-5.523,0-10-4.478-10-10v-49.154c0-5.522,4.477-10,10-10s10,4.478,10,10v49.154    C129.925,466.704,125.448,471.182,119.925,471.182z" fill="#444B54"/></g><g><path d="M392.075,471.182c-5.523,0-10-4.478-10-10v-49.154c0-5.522,4.477-10,10-10s10,4.478,10,10v49.154    C402.075,466.704,397.598,471.182,392.075,471.182z" fill="#444B54"/></g><g><path d="M284.632,335.393h-64.281c-5.523,0-10-4.478-10-10s4.477-10,10-10h64.281c5.523,0,10,4.478,10,10    S290.155,335.393,284.632,335.393z" fill="#444B54"/></g></g></svg>