<?xml version="1.0" encoding="UTF-8"?><svg xmlns="http://www.w3.org/2000/svg" xmlns:xlink="http://www.w3.org/1999/xlink" width="72px" height="72px" viewBox="0 0 72 72" version="1.1"><title>twitter</title><g id="providers-list" stroke="none" stroke-width="1" fill="none" fill-rule="evenodd"><g id="twitter"><rect id="Rectangle-2" fill="#54ACEE" x="0" y="0" width="72" height="72" rx="4"/><path d="M62 20.09a20.942 20.942 0 0 1-6.128 1.709 10.844 10.844 0 0 0 4.691-6.006 21.134 21.134 0 0 1-6.774 2.635C51.843 16.32 49.07 15 46.002 15c-5.891 0-10.668 4.86-10.668 10.856 0 .85.094 1.678.277 2.473-8.867-.453-16.728-4.774-21.99-11.342a10.946 10.946 0 0 0-1.444 5.459 10.9 10.9 0 0 0 4.745 9.035 10.499 10.499 0 0 1-4.832-1.359l-.001.138c0 5.258 3.678 9.645 8.558 10.644a10.553 10.553 0 0 1-4.818.184c1.358 4.313 5.298 7.453 9.965 7.54a21.169 21.169 0 0 1-13.249 4.647c-.86 0-1.71-.051-2.545-.152C14.723 56.204 20.33 58 26.354 58c19.624 0 30.353-16.54 30.353-30.886 0-.47-.01-.94-.03-1.406A21.822 21.822 0 0 0 62 20.09z" id="Shape" fill="#FFF"/></g></g><metadata><rdf:RDF xmlns:rdf="http://www.w3.org/1999/02/22-rdf-syntax-ns#" xmlns:rdfs="http://www.w3.org/2000/01/rdf-schema#" xmlns:dc="http://purl.org/dc/elements/1.1/"><rdf:Description about="https://iconscout.com/legal#licenses" dc:title="twitter" dc:description="twitter" dc:publisher="Iconscout" dc:date="2017-09-26" dc:format="image/svg+xml" dc:language="en"><dc:creator><rdf:Bag><rdf:li>Luc Chaffard</rdf:li></rdf:Bag></dc:creator></rdf:Description></rdf:RDF></metadata></svg>